Coordinates
version=1
nRows=10
nColumns=40
inDegrees=yes

Units are S.I. units (second, meters, Newtons, ...)
If the header above contains a line with 'inDegrees', this indicates whether rotational values are in degrees (yes) or radians (no).

endheader
time	pelvis_tilt	pelvis_list	pelvis_rotation	pelvis_tx	pelvis_ty	pelvis_tz	hip_flexion_r	hip_adduction_r	hip_rotation_r	knee_angle_r	knee_angle_r_beta	ankle_angle_r	subtalar_angle_r	mtp_angle_r	hip_flexion_l	hip_adduction_l	hip_rotation_l	knee_angle_l	knee_angle_l_beta	ankle_angle_l	subtalar_angle_l	mtp_angle_l	lumbar_extension	lumbar_bending	lumbar_rotation	arm_flex_r	arm_add_r	arm_rot_r	elbow_flex_r	pro_sup_r	wrist_flex_r	wrist_dev_r	arm_flex_l	arm_add_l	arm_rot_l	elbow_flex_l	pro_sup_l	wrist_flex_l	wrist_dev_l
      0.89166667	     41.73067825	    -45.87598887	    -89.94414014	      0.28164797	      1.05128170	      0.23130012	    -20.52002420	    -60.05621168	     -2.94596915	     36.34910522	      0.63441157	     19.58727330	      0.00000000	      0.00000000	     71.73266377	     15.14906884	    -33.21374614	    119.59346068	      2.08729965	      4.53089191	      0.00000000	      0.00000000	    -60.18124922	    -28.68401714	    -33.45243417	     35.87142034	    -29.21779538	     13.08368838	    132.47761333	     77.19114001	      0.00000000	      0.00000000	     60.83531204	    -21.71056557	     43.34507466	    109.61082631	     39.23035799	      0.00000000	      0.00000000
      0.89444444	     41.59892700	    -45.81846284	    -89.94439422	      0.28328640	      1.05037187	      0.23116857	    -20.28511649	    -60.10414593	     -3.03683687	     36.53009096	      0.63757036	     19.59672703	      0.00000000	      0.00000000	     71.46665207	     15.49871405	    -33.02212652	    118.97387979	      2.07648593	      4.55374579	      0.00000000	      0.00000000	    -60.10426061	    -28.49784144	    -33.41153488	     36.06238817	    -29.22224181	     13.20481750	    132.30558391	     77.19803760	      0.00000000	      0.00000000	     60.89349617	    -21.65917109	     43.34128346	    109.40270170	     39.21064447	      0.00000000	      0.00000000
      0.89722222	     41.46192331	    -45.76521702	    -89.94457899	      0.28492420	      1.04949912	      0.23094596	    -20.04056226	    -60.14521353	     -3.13196467	     36.70743254	      0.64066556	     19.60658234	      0.00000000	      0.00000000	     71.17224036	     15.84832025	    -32.81326435	    118.33147985	      2.06527393	      4.57679816	      0.00000000	      0.00000000	    -60.04353922	    -28.30925731	    -33.38134663	     36.24924163	    -29.23599171	     13.32506911	    132.12957694	     77.20367881	      0.00000000	      0.00000000	     60.94291734	    -21.60208285	     43.34827996	    109.17824382	     39.18705682	      0.00000000	      0.00000000
      0.90000000	     41.29009824	    -45.71384868	    -89.94465711	      0.28655648	      1.04860360	      0.23070840	    -19.77604936	    -60.14293274	     -3.19622859	     36.94488150	      0.64480982	     19.59472155	      0.00000000	      0.00000000	     70.84809279	     16.20025998	    -32.56087428	    117.67579943	      2.05383015	      4.65356672	      0.00000000	      0.00000000	    -59.97933914	    -28.09088185	    -33.34827068	     36.45620934	    -29.26830936	     13.50612648	    131.91452804	     77.21021048	      0.00000000	      0.00000000	     61.00019748	    -21.55806985	     43.36451225	    108.93856746	     39.16173190	      0.00000000	      0.00000000
      0.90277778	     41.16787728	    -45.64957214	    -89.94453086	      0.28821855	      1.04772134	      0.23050978	    -19.54560459	    -60.20377298	     -3.32120293	     37.08571865	      0.64726790	     19.61215851	      0.00000000	      0.00000000	     70.55110269	     16.55337427	    -32.34447997	    116.98497611	      2.04177301	      4.64154118	      0.00000000	      0.00000000	    -59.91152042	    -27.91010960	    -33.30920833	     36.61652903	    -29.26450213	     13.59222218	    131.74501700	     77.20994428	      0.00000000	      0.00000000	     61.04342970	    -21.50775276	     43.35905139	    108.71402987	     39.13210032	      0.00000000	      0.00000000
      0.90555556	     40.99607302	    -45.60481069	    -89.94511610	      0.28991476	      1.04680393	      0.23027044	    -19.29372662	    -60.21535273	     -3.39850531	     37.32538991	      0.65145095	     19.60823783	      0.00000000	      0.00000000	     70.19897422	     16.90274577	    -32.09009454	    116.29642849	      2.02975559	      4.70243585	      0.00000000	      0.00000000	    -59.84433609	    -27.68314716	    -33.25905839	     36.83571043	    -29.29126408	     13.75593299	    131.51680082	     77.21283988	      0.00000000	      0.00000000	     61.11056927	    -21.45587611	     43.37030983	    108.43427280	     39.09693081	      0.00000000	      0.00000000
      0.90833333	     40.81437832	    -45.54266541	    -89.94530053	      0.29158300	      1.04587468	      0.23002235	    -19.03307541	    -60.20799559	     -3.47981895	     37.55558965	      0.65546869	     19.59252359	      0.00000000	      0.00000000	     69.84499089	     17.25306568	    -31.79720957	    115.58609707	      2.01735796	      4.76719839	      0.00000000	      0.00000000	    -59.76997869	    -27.45113676	    -33.21967961	     37.03853030	    -29.31504780	     13.92329398	    131.28787796	     77.20995234	      0.00000000	      0.00000000	     61.16669460	    -21.41861802	     43.38106961	    108.17307489	     39.05970103	      0.00000000	      0.00000000
      0.91111111	     40.68735032	    -45.45406970	    -89.94510581	      0.29324409	      1.04499329	      0.22985416	    -18.79596016	    -60.26298973	     -3.62152286	     37.68048800	      0.65764858	     19.61227588	      0.00000000	      0.00000000	     69.50253357	     17.61011908	    -31.55744158	    114.82360725	      2.00405001	      4.73060405	      0.00000000	      0.00000000	    -59.68114857	    -27.27300532	    -33.18848183	     37.13980662	    -29.31872891	     14.01081788	    131.10650775	     77.20661952	      0.00000000	      0.00000000	     61.19448785	    -21.37630809	     43.37707906	    107.95372247	     39.02682900	      0.00000000	      0.00000000
      0.91388889	     40.53680242	    -45.38711110	    -89.94538127	      0.29496469	      1.04406476	      0.22965152	    -18.54258537	    -60.30373130	     -3.73278499	     37.86322790	      0.66083799	     19.62459622	      0.00000000	      0.00000000	     69.12581032	     17.95578931	    -31.28810626	    114.07201387	      1.99093223	      4.73146319	      0.00000000	      0.00000000	    -59.60076047	    -27.06236655	    -33.14588147	     37.29761355	    -29.33475995	     14.12804778	    130.88490691	     77.20494530	      0.00000000	      0.00000000	     61.24041247	    -21.32454006	     43.37967236	    107.67283703	     38.98751407	      0.00000000	      0.00000000
      0.91666667	     40.32946542	    -45.33557903	    -89.94564627	      0.29673288	      1.04310603	      0.22929021	    -18.25365540	    -60.28593613	     -3.80684514	     38.13809156	      0.66563527	     19.60877388	      0.00000000	      0.00000000	     68.71270799	     18.31849744	    -30.94739848	    113.30247947	      1.97750132	      4.80720764	      0.00000000	      0.00000000	    -59.53986339	    -26.80085804	    -33.10290642	     37.55951567	    -29.35966268	     14.30059853	    130.61447552	     77.20065287	      0.00000000	      0.00000000	     61.33518634	    -21.26612303	     43.38305299	    107.32202412	     38.93682263	      0.00000000	      0.00000000
